<?xml version="1.0" encoding="UTF-8" standalone="no"?>
<svg
   contentStyleType="text/css"
   height="275px"
   preserveAspectRatio="none"
   style="width:851px;height:275px;background:#FFFFFF;"
   version="1.1"
   viewBox="0 0 851 275"
   width="851px"
   zoomAndPan="magnify"
   id="svg41"
   sodipodi:docname="susdominioprobleamfileh.svg"
   inkscape:version="1.3.2 (091e20ef0f, 2023-11-25, custom)"
   xmlns:inkscape="http://www.inkscape.org/namespaces/inkscape"
   xmlns:sodipodi="http://sodipodi.sourceforge.net/DTD/sodipodi-0.dtd"
   xmlns="http://www.w3.org/2000/svg"
   xmlns:svg="http://www.w3.org/2000/svg">
  <sodipodi:namedview
     id="namedview41"
     pagecolor="#ffffff"
     bordercolor="#000000"
     borderopacity="0.25"
     inkscape:showpageshadow="2"
     inkscape:pageopacity="0.0"
     inkscape:pagecheckerboard="0"
     inkscape:deskcolor="#d1d1d1"
     inkscape:zoom="1.5152761"
     inkscape:cx="552.04459"
     inkscape:cy="129.01939"
     inkscape:window-width="3127"
     inkscape:window-height="1237"
     inkscape:window-x="0"
     inkscape:window-y="0"
     inkscape:window-maximized="1"
     inkscape:current-layer="svg41" />
  <defs
     id="defs1" />
  <g
     id="elem_User">
    <rect
       codeLine="2"
       fill="#f1f1f1"
       height="96.890602"
       id="User"
       rx="2.5"
       ry="2.5"
       style="stroke:#181818;stroke-width:0.5"
       width="155"
       x="7"
       y="7" />
    <circle
       cx="64.25"
       cy="23"
       fill="#add1b2"
       style="stroke:#181818;stroke-width:1"
       id="ellipse1"
       r="11" />
    <path
       d="M 67.2188,28.6406 Q 66.6406,28.9375 66,29.0781 q -0.6406,0.1563 -1.3437,0.1563 -2.5,0 -3.8282,-1.6406 -1.3125,-1.6563 -1.3125,-4.7813 0,-3.125 1.3125,-4.7812 1.3282,-1.6563 3.8282,-1.6563 0.7031,0 1.3437,0.1563 0.6563,0.1562 1.2188,0.4531 v 2.7187 Q 66.5938,19.125 66,18.8594 q -0.5937,-0.2813 -1.2187,-0.2813 -1.3438,0 -2.0313,1.0782 -0.6875,1.0625 -0.6875,3.1562 0,2.0938 0.6875,3.1719 0.6875,1.0625 2.0313,1.0625 0.625,0 1.2187,-0.2656 0.5938,-0.2813 1.2188,-0.8594 z"
       fill="#000000"
       id="path1" />
    <text
       fill="#000000"
       font-family="sans-serif"
       font-size="14px"
       lengthAdjust="spacing"
       textLength="32"
       x="84.75"
       y="27.846701"
       id="text1">User</text>
    <line
       style="stroke:#181818;stroke-width:0.5"
       x1="8"
       x2="161"
       y1="39"
       y2="39"
       id="line1" />
    <line
       style="stroke:#181818;stroke-width:0.5"
       x1="8"
       x2="161"
       y1="47"
       y2="47"
       id="line2" />
    <circle
       cx="18"
       cy="60.648399"
       fill="#84be84"
       style="stroke:#038048;stroke-width:1"
       id="ellipse2"
       r="3" />
    <text
       fill="#000000"
       font-family="sans-serif"
       font-size="14px"
       lengthAdjust="spacing"
       textLength="109"
       x="27"
       y="63.995098"
       id="text2">View an Article()</text>
    <circle
       cx="18"
       cy="76.945297"
       fill="#84be84"
       style="stroke:#038048;stroke-width:1"
       id="ellipse3"
       r="3" />
    <text
       fill="#000000"
       font-family="sans-serif"
       font-size="14px"
       lengthAdjust="spacing"
       textLength="125"
       x="27"
       y="80.292"
       id="text3">Search an Article()</text>
    <circle
       cx="18"
       cy="93.242203"
       fill="#84be84"
       style="stroke:#038048;stroke-width:1"
       id="ellipse4"
       r="3" />
    <text
       fill="#000000"
       font-family="sans-serif"
       font-size="14px"
       lengthAdjust="spacing"
       textLength="129"
       x="27"
       y="96.588898"
       id="text4">Search an Author()</text>
  </g>
  <g
     id="elem_ArticleVersion">
    <rect
       codeLine="8"
       fill="#f1f1f1"
       height="129.48441"
       id="ArticleVersion"
       rx="2.5"
       ry="2.5"
       style="stroke:#181818;stroke-width:0.5"
       width="155"
       x="502"
       y="109.71" />
    <circle
       cx="530.04999"
       cy="125.71"
       fill="#add1b2"
       style="stroke:#181818;stroke-width:1"
       id="ellipse5"
       r="11" />
    <path
       d="m 533.0188,131.3506 q -0.5782,0.2969 -1.2188,0.4375 -0.6406,0.1563 -1.3437,0.1563 -2.5,0 -3.8282,-1.6406 -1.3125,-1.6563 -1.3125,-4.7813 0,-3.125 1.3125,-4.7812 1.3282,-1.6563 3.8282,-1.6563 0.7031,0 1.3437,0.1563 0.6563,0.1562 1.2188,0.4531 v 2.7187 q -0.625,-0.5781 -1.2188,-0.8437 -0.5937,-0.2813 -1.2187,-0.2813 -1.3438,0 -2.0313,1.0782 -0.6875,1.0625 -0.6875,3.1562 0,2.0938 0.6875,3.1719 0.6875,1.0625 2.0313,1.0625 0.625,0 1.2187,-0.2656 0.5938,-0.2813 1.2188,-0.8594 z"
       fill="#000000"
       id="path5" />
    <text
       fill="#000000"
       font-family="sans-serif"
       font-size="14px"
       lengthAdjust="spacing"
       textLength="94"
       x="546.95001"
       y="130.5567"
       id="text5">ArticleVersion</text>
    <line
       style="stroke:#181818;stroke-width:0.5"
       x1="503"
       x2="656"
       y1="141.71001"
       y2="141.71001"
       id="line5" />
    <rect
       fill="none"
       height="6"
       style="stroke:#c82930;stroke-width:1"
       width="6"
       x="510"
       y="152.3584"
       id="rect5" />
    <text
       fill="#000000"
       font-family="sans-serif"
       font-size="14px"
       lengthAdjust="spacing"
       textLength="33"
       x="522"
       y="158.70509"
       id="text6">int id</text>
    <rect
       fill="none"
       height="6"
       style="stroke:#c82930;stroke-width:1"
       width="6"
       x="510"
       y="168.6553"
       id="rect6" />
    <text
       fill="#000000"
       font-family="sans-serif"
       font-size="14px"
       lengthAdjust="spacing"
       textLength="70"
       x="522"
       y="175.002"
       id="text7">String text</text>
    <rect
       fill="none"
       height="6"
       style="stroke:#c82930;stroke-width:1"
       width="6"
       x="510"
       y="184.95219"
       id="rect7" />
    <text
       fill="#000000"
       font-family="sans-serif"
       font-size="14px"
       lengthAdjust="spacing"
       textLength="120"
       x="522"
       y="191.2989"
       id="text8">Date versionDate</text>
    <rect
       fill="none"
       height="6"
       style="stroke:#c82930;stroke-width:1"
       width="6"
       x="510"
       y="201.2491"
       id="rect8" />
    <text
       fill="#000000"
       font-family="sans-serif"
       font-size="14px"
       lengthAdjust="spacing"
       textLength="123"
       x="522"
       y="207.5957"
       id="text9">Date revisionDate</text>
    <rect
       fill="none"
       height="6"
       style="stroke:#c82930;stroke-width:1"
       width="6"
       x="510"
       y="217.5459"
       id="rect9" />
    <text
       fill="#000000"
       font-family="sans-serif"
       font-size="14px"
       lengthAdjust="spacing"
       textLength="129"
       x="522"
       y="223.89259"
       id="text10">String titleProposal</text>
    <line
       style="stroke:#181818;stroke-width:0.5"
       x1="503"
       x2="656"
       y1="231.1944"
       y2="231.1944"
       id="line10" />
  </g>
  <g
     id="elem_Status">
    <rect
       codeLine="15"
       fill="#f1f1f1"
       height="96.890602"
       id="Status"
       rx="2.5"
       ry="2.5"
       style="stroke:#181818;stroke-width:0.5"
       width="102"
       x="742"
       y="126" />
    <circle
       cx="768.70001"
       cy="142"
       fill="#eb937f"
       style="stroke:#181818;stroke-width:1"
       id="ellipse10"
       r="11" />
    <path
       d="m 772.8094,148 h -7.7188 v -12.3906 h 7.7188 v 2.1562 h -5.2656 v 2.6719 h 4.7656 v 2.1563 h -4.7656 v 3.25 h 5.2656 z"
       fill="#000000"
       id="path10" />
    <text
       fill="#000000"
       font-family="sans-serif"
       font-size="14px"
       lengthAdjust="spacing"
       textLength="44"
       x="785.29999"
       y="146.84669"
       id="text11">Status</text>
    <line
       style="stroke:#181818;stroke-width:0.5"
       x1="743"
       x2="843"
       y1="158"
       y2="158"
       id="line11" />
    <circle
       cx="753"
       cy="171.64841"
       fill="none"
       style="stroke:#038048;stroke-width:1"
       id="ellipse11"
       r="3" />
    <text
       fill="#000000"
       font-family="sans-serif"
       font-size="14px"
       lengthAdjust="spacing"
       textLength="58"
       x="762"
       y="174.9951"
       id="text12">WAITING</text>
    <circle
       cx="753"
       cy="187.9453"
       fill="none"
       style="stroke:#038048;stroke-width:1"
       id="ellipse12"
       r="3" />
    <text
       fill="#000000"
       font-family="sans-serif"
       font-size="14px"
       lengthAdjust="spacing"
       textLength="76"
       x="762"
       y="191.29201"
       id="text13">ACCEPTED</text>
    <circle
       cx="753"
       cy="204.2422"
       fill="none"
       style="stroke:#038048;stroke-width:1"
       id="ellipse13"
       r="3" />
    <text
       fill="#000000"
       font-family="sans-serif"
       font-size="14px"
       lengthAdjust="spacing"
       textLength="70"
       x="762"
       y="207.5889"
       id="text14">REJECTED</text>
    <line
       style="stroke:#181818;stroke-width:0.5"
       x1="743"
       x2="843"
       y1="214.89059"
       y2="214.89059"
       id="line14" />
  </g>
  <g
     id="elem_Author">
    <rect
       codeLine="21"
       fill="#f1f1f1"
       height="129.48441"
       id="Author"
       rx="2.5"
       ry="2.5"
       style="stroke:#181818;stroke-width:0.5"
       width="137"
       x="16"
       y="138.71001" />
    <circle
       cx="57.549999"
       cy="154.71001"
       fill="#add1b2"
       style="stroke:#181818;stroke-width:1"
       id="ellipse14"
       r="11" />
    <path
       d="m 60.5188,160.3506 q -0.5782,0.2969 -1.2188,0.4375 -0.6406,0.1563 -1.3437,0.1563 -2.5,0 -3.8282,-1.6406 -1.3125,-1.6563 -1.3125,-4.7813 0,-3.125 1.3125,-4.7812 1.3282,-1.6563 3.8282,-1.6563 0.7031,0 1.3437,0.1563 0.6563,0.1562 1.2188,0.4531 v 2.7187 q -0.625,-0.5781 -1.2188,-0.8437 -0.5937,-0.2813 -1.2187,-0.2813 -1.3438,0 -2.0313,1.0782 -0.6875,1.0625 -0.6875,3.1562 0,2.0938 0.6875,3.1719 0.6875,1.0625 2.0313,1.0625 0.625,0 1.2187,-0.2656 0.5938,-0.2813 1.2188,-0.8594 z"
       fill="#000000"
       id="path14" />
    <text
       fill="#000000"
       font-family="sans-serif"
       font-size="14px"
       lengthAdjust="spacing"
       textLength="46"
       x="77.449997"
       y="159.5567"
       id="text15">Author</text>
    <line
       style="stroke:#181818;stroke-width:0.5"
       x1="17"
       x2="152"
       y1="170.71001"
       y2="170.71001"
       id="line15" />
    <rect
       fill="none"
       height="6"
       style="stroke:#c82930;stroke-width:1"
       width="6"
       x="24"
       y="181.3584"
       id="rect15" />
    <text
       fill="#000000"
       font-family="sans-serif"
       font-size="14px"
       lengthAdjust="spacing"
       textLength="33"
       x="36"
       y="187.70509"
       id="text16">int id</text>
    <rect
       fill="none"
       height="6"
       style="stroke:#c82930;stroke-width:1"
       width="6"
       x="24"
       y="197.6553"
       id="rect16" />
    <text
       fill="#000000"
       font-family="sans-serif"
       font-size="14px"
       lengthAdjust="spacing"
       textLength="80"
       x="36"
       y="204.002"
       id="text17">String email</text>
    <rect
       fill="none"
       height="6"
       style="stroke:#c82930;stroke-width:1"
       width="6"
       x="24"
       y="213.95219"
       id="rect17" />
    <text
       fill="#000000"
       font-family="sans-serif"
       font-size="14px"
       lengthAdjust="spacing"
       textLength="111"
       x="36"
       y="220.2989"
       id="text18">String nickname</text>
    <rect
       fill="none"
       height="6"
       style="stroke:#c82930;stroke-width:1"
       width="6"
       x="24"
       y="230.2491"
       id="rect18" />
    <text
       fill="#000000"
       font-family="sans-serif"
       font-size="14px"
       lengthAdjust="spacing"
       textLength="111"
       x="36"
       y="236.5957"
       id="text19">String password</text>
    <rect
       fill="none"
       height="6"
       style="stroke:#c82930;stroke-width:1"
       width="6"
       x="24"
       y="246.5459"
       id="rect19" />
    <text
       fill="#000000"
       font-family="sans-serif"
       font-size="14px"
       lengthAdjust="spacing"
       textLength="72"
       x="36"
       y="252.89259"
       id="text20">float rating</text>
    <line
       style="stroke:#181818;stroke-width:0.5"
       x1="17"
       x2="152"
       y1="260.1944"
       y2="260.1944"
       id="line20" />
  </g>
  <g
     id="elem_Article">
    <rect
       codeLine="29"
       fill="#f1f1f1"
       height="129.48441"
       id="Article"
       rx="2.5"
       ry="2.5"
       style="stroke:#181818;stroke-width:0.5"
       width="152"
       x="265"
       y="21.709999" />
    <circle
       cx="315.75"
       cy="37.709999"
       fill="#add1b2"
       style="stroke:#181818;stroke-width:1"
       id="ellipse20"
       r="11" />
    <path
       d="m 318.7188,43.3506 q -0.5782,0.2969 -1.2188,0.4375 -0.6406,0.1563 -1.3437,0.1563 -2.5,0 -3.8282,-1.6406 -1.3125,-1.6563 -1.3125,-4.7813 0,-3.125 1.3125,-4.7812 1.3282,-1.6563 3.8282,-1.6563 0.7031,0 1.3437,0.1563 0.6563,0.1562 1.2188,0.4531 v 2.7187 q -0.625,-0.5781 -1.2188,-0.8437 -0.5937,-0.2813 -1.2187,-0.2813 -1.3438,0 -2.0313,1.0782 -0.6875,1.0625 -0.6875,3.1562 0,2.0938 0.6875,3.1719 0.6875,1.0625 2.0313,1.0625 0.625,0 1.2187,-0.2656 0.5938,-0.2813 1.2188,-0.8594 z"
       fill="#000000"
       id="path20" />
    <text
       fill="#000000"
       font-family="sans-serif"
       font-size="14px"
       lengthAdjust="spacing"
       textLength="42"
       x="336.25"
       y="42.556702"
       id="text21">Article</text>
    <line
       style="stroke:#181818;stroke-width:0.5"
       x1="266"
       x2="416"
       y1="53.709999"
       y2="53.709999"
       id="line21" />
    <polygon
       fill="none"
       points="280,69.3584 276,63.3584 272,69.3584 "
       style="stroke:#1963a0;stroke-width:1"
       id="polygon21" />
    <text
       fill="#000000"
       font-family="sans-serif"
       font-size="14px"
       lengthAdjust="spacing"
       textLength="33"
       x="285"
       y="70.705101"
       id="text22">int id</text>
    <polygon
       fill="none"
       points="280,85.6553 276,79.6553 272,85.6553 "
       style="stroke:#1963a0;stroke-width:1"
       id="polygon22" />
    <text
       fill="#000000"
       font-family="sans-serif"
       font-size="14px"
       lengthAdjust="spacing"
       textLength="69"
       x="285"
       y="87.001999"
       id="text23">String title</text>
    <polygon
       fill="none"
       points="280,101.9522 276,95.9522 272,101.9522 "
       style="stroke:#1963a0;stroke-width:1"
       id="polygon23" />
    <text
       fill="#000000"
       font-family="sans-serif"
       font-size="14px"
       lengthAdjust="spacing"
       textLength="126"
       x="285"
       y="103.2989"
       id="text24">Date creationDate</text>
    <rect
       fill="none"
       height="6"
       style="stroke:#c82930;stroke-width:1"
       width="6"
       x="273"
       y="113.2491"
       id="rect24" />
    <text
       fill="#000000"
       font-family="sans-serif"
       font-size="14px"
       lengthAdjust="spacing"
       textLength="95"
       x="285"
       y="119.5957"
       id="text25">Author author</text>
    <rect
       fill="none"
       height="6"
       style="stroke:#c82930;stroke-width:1"
       width="6"
       x="273"
       y="129.5459"
       id="rect25" />
    <text
       fill="#000000"
       font-family="sans-serif"
       font-size="14px"
       lengthAdjust="spacing"
       textLength="59"
       x="285"
       y="135.89259"
       id="text26">int views</text>
    <line
       style="stroke:#181818;stroke-width:0.5"
       x1="266"
       x2="416"
       y1="143.1944"
       y2="143.1944"
       id="line26" />
  </g>
  <path
     codeLine="39"
     d="m 162.2,64.79 c 32.5,3.96 64.2838,7.836 96.6138,11.766"
     fill="none"
     id="User-to-Article"
     style="stroke:#181818;stroke-width:1" />
  <polygon
     fill="#181818"
     points="264.77,77.28 256.3184,72.2232 259.8065,76.6766 255.3531,80.1647 "
     style="stroke:#181818;stroke-width:1"
     id="polygon26" />
  <text
     fill="#000000"
     font-family="sans-serif"
     font-size="13px"
     lengthAdjust="spacing"
     textLength="27"
     x="200"
     y="65.516899"
     id="text27">view</text>
  <text
     fill="#000000"
     font-family="sans-serif"
     font-size="13px"
     lengthAdjust="spacing"
     textLength="8"
     x="169.987"
     y="78.468697"
     id="text28">1</text>
  <text
     fill="#000000"
     font-family="sans-serif"
     font-size="13px"
     lengthAdjust="spacing"
     textLength="23"
     x="233.9565"
     y="89.203903"
     id="text29"
     transform="translate(-3.9596743,0.79399719)">0..*</text>
  <path
     codeLine="40"
     d="m 153.37,172.25 c 34.31,-15.78 70.5889,-32.453 105.8789,-48.683"
     fill="none"
     id="Author-to-Article"
     style="stroke:#181818;stroke-width:1" />
  <polygon
     fill="#181818"
     points="264.7,121.06 254.852,121.1864 260.1574,123.1492 258.1946,128.4546 "
     style="stroke:#181818;stroke-width:1"
     id="polygon29" />
  <text
     fill="#000000"
     font-family="sans-serif"
     font-size="13px"
     lengthAdjust="spacing"
     textLength="41"
     x="193"
     y="134.51691"
     id="text30"
     transform="translate(-22.175207,8.7107678)">create</text>
  <text
     fill="#000000"
     font-family="sans-serif"
     font-size="13px"
     lengthAdjust="spacing"
     textLength="8"
     x="160.8847"
     y="181.8795"
     id="text31">1</text>
  <text
     fill="#000000"
     font-family="sans-serif"
     font-size="13px"
     lengthAdjust="spacing"
     textLength="23"
     x="233.88029"
     y="136.883"
     id="text32"
     transform="translate(1.5828386,9.5021871)">0..*</text>
  <path
     codeLine="41"
     d="m 417.48,114.53 c 26.9,10.01 51.5967,19.1976 78.6067,29.2476"
     fill="none"
     id="Article-to-ArticleVersion"
     style="stroke:#181818;stroke-width:1" />
  <polygon
     fill="#181818"
     points="501.71,145.87 494.6699,138.9826 497.0239,144.1264 491.8801,146.4804 "
     style="stroke:#181818;stroke-width:1"
     id="polygon32" />
  <text
     fill="#000000"
     font-family="sans-serif"
     font-size="13px"
     lengthAdjust="spacing"
     textLength="23"
     x="448"
     y="124.5169"
     id="text33"
     transform="translate(0,-2.3742578)">has</text>
  <text
     fill="#000000"
     font-family="sans-serif"
     font-size="13px"
     lengthAdjust="spacing"
     textLength="8"
     x="424.89929"
     y="129.8828"
     id="text34"
     transform="translate(0.79141928,3.9596743)">1</text>
  <text
     fill="#000000"
     font-family="sans-serif"
     font-size="13px"
     lengthAdjust="spacing"
     textLength="23"
     x="471.03659"
     y="156.13091"
     id="text35"
     transform="translate(-4.7510936)">1..*</text>
  <path
     codeLine="42"
     d="m 153.45,200.03 c 67.02,-3.43 172.37,-9 263.55,-14.58 27.63,-1.69 51.9241,-3.2989 78.7141,-5.1389"
     fill="none"
     id="Author-to-ArticleVersion"
     style="stroke:#181818;stroke-width:1" />
  <polygon
     fill="#181818"
     points="501.7,179.9 492.4471,176.5261 496.7118,180.2426 492.9952,184.5073 "
     style="stroke:#181818;stroke-width:1"
     id="polygon35" />
  <text
     fill="#000000"
     font-family="sans-serif"
     font-size="13px"
     lengthAdjust="spacing"
     textLength="52"
     x="315"
     y="181.51691"
     id="text36">propose</text>
  <text
     fill="#000000"
     font-family="sans-serif"
     font-size="13px"
     lengthAdjust="spacing"
     textLength="8"
     x="160.97301"
     y="212.52431"
     id="text37">1</text>
  <text
     fill="#000000"
     font-family="sans-serif"
     font-size="13px"
     lengthAdjust="spacing"
     textLength="23"
     x="471.02579"
     y="193.0853"
     id="text38"
     transform="translate(-2.3768357,2.3768357)">0..*</text>
  <g
     id="link_ArticleVersion_Status">
    <path
       codeLine="43"
       d="m 657.45,174.45 c 28.12,0 53.16,0 78.35,0"
       fill="none"
       id="ArticleVersion-to-Status"
       style="stroke:#181818;stroke-width:1" />
    <polygon
       fill="#181818"
       points="736.8,174.45 732.8,178.45 741.8,174.45 732.8,170.45 "
       style="stroke:#181818;stroke-width:1"
       id="polygon38" />
    <text
       fill="#000000"
       font-family="sans-serif"
       font-size="13px"
       lengthAdjust="spacing"
       textLength="23"
       x="688"
       y="170.51691"
       id="text39">has</text>
    <text
       fill="#000000"
       font-family="sans-serif"
       font-size="13px"
       lengthAdjust="spacing"
       textLength="8"
       x="665.00482"
       y="187.2142"
       id="text40">1</text>
    <text
       fill="#000000"
       font-family="sans-serif"
       font-size="13px"
       lengthAdjust="spacing"
       textLength="8"
       x="726.03748"
       y="187.5816"
       id="text41">1</text>
  </g>
</svg>
